HIERARCHY
ROOT joint_Root
{
	OFFSET 0.0 0.0 0.0
	CHANNELS 6 Xposition Yposition Zposition Zrotation Xrotation Yrotation 
	JOINT Hips
	{
		OFFSET -0.726466 93.3139 -2.00062
		CHANNELS 6 Xposition Yposition Zposition Zrotation Xrotation Yrotation 
		JOINT Spine
		{
			OFFSET 15.7357 0.0 0.0
			CHANNELS 6 Xposition Yposition Zposition Zrotation Xrotation Yrotation 
			JOINT Chest
			{
				OFFSET 8.98455 -0.406207 0.0
				CHANNELS 6 Xposition Yposition Zposition Zrotation Xrotation Yrotation 
				JOINT Neck
				{
					OFFSET 16.3773 0.0 0.0
					CHANNELS 6 Xposition Yposition Zposition Zrotation Xrotation Yrotation 
					JOINT Head
					{
						OFFSET 6.45672 0.0 0.0
						CHANNELS 6 Xposition Yposition Zposition Zrotation Xrotation Yrotation 
						End Site
						{
							OFFSET 0.0 0.0 0.0
						}
					}
				}
				JOINT Shoulder_L
				{
					OFFSET 12.9942 -0.242716 4.98039
					CHANNELS 6 Xposition Yposition Zposition Zrotation Xrotation Yrotation 
					JOINT UpperArm_L
					{
						OFFSET 5.34809 0.0 0.0
						CHANNELS 6 Xposition Yposition Zposition Zrotation Xrotation Yrotation 
						JOINT LowerArm_L
						{
							OFFSET 24.3286 1.87007e-05 0.0
							CHANNELS 6 Xposition Yposition Zposition Zrotation Xrotation Yrotation 
							JOINT Hand_L
							{
								OFFSET 22.2916 0.0 0.0
								CHANNELS 6 Xposition Yposition Zposition Zrotation Xrotation Yrotation 
								End Site
								{
									OFFSET 0.0 0.0 0.0
								}
							}
						}
					}
				}
				JOINT Shoulder_R
				{
					OFFSET 12.9945 -0.242716 -4.98039
					CHANNELS 6 Xposition Yposition Zposition Zrotation Xrotation Yrotation 
					JOINT UpperArm_R
					{
						OFFSET -5.34813 0.0 0.0
						CHANNELS 6 Xposition Yposition Zposition Zrotation Xrotation Yrotation 
						JOINT LowerArm_R
						{
							OFFSET -24.3289 0.000322201 0.0
							CHANNELS 6 Xposition Yposition Zposition Zrotation Xrotation Yrotation 
							JOINT Hand_R
							{
								OFFSET -22.2915 -0.000108084 0.0
								CHANNELS 6 Xposition Yposition Zposition Zrotation Xrotation Yrotation 
								End Site
								{
									OFFSET 0.0 0.0 0.0
								}
							}
						}
					}
				}
			}
		}
		JOINT UpperLeg_L
		{
			OFFSET -2.19248 -6.46944 0.0
			CHANNELS 6 Xposition Yposition Zposition Zrotation Xrotation Yrotation 
			JOINT LowerLeg_L
			{
				OFFSET 39.0811 0.0 -1.23785e-05
				CHANNELS 6 Xposition Yposition Zposition Zrotation Xrotation Yrotation 
				JOINT Foot_L
				{
					OFFSET 40.9854 0.0 -1.26872e-05
					CHANNELS 6 Xposition Yposition Zposition Zrotation Xrotation Yrotation 
					JOINT Toes_L
					{
						OFFSET 11.7543 0.0 0.0
						CHANNELS 6 Xposition Yposition Zposition Zrotation Xrotation Yrotation 
						End Site
						{
							OFFSET 0.0 0.0 0.0
						}
					}
				}
			}
		}
		JOINT UpperLeg_R
		{
			OFFSET -2.19251 6.46944 0.0
			CHANNELS 6 Xposition Yposition Zposition Zrotation Xrotation Yrotation 
			JOINT LowerLeg_R
			{
				OFFSET -39.0811 -0.00228153 -0.0401928
				CHANNELS 6 Xposition Yposition Zposition Zrotation Xrotation Yrotation 
				JOINT Foot_R
				{
					OFFSET -40.9854 0.0 0.0
					CHANNELS 6 Xposition Yposition Zposition Zrotation Xrotation Yrotation 
					JOINT Toes_R
					{
						OFFSET -11.7543 0.0 0.0
						CHANNELS 6 Xposition Yposition Zposition Zrotation Xrotation Yrotation 
						End Site
						{
							OFFSET 0.0 0.0 0.0
						}
					}
				}
			}
		}
	}
}
MOTION
Frames:	4
Frame Time:	0.0333333
0.000000 0.000000 0.000000 0.000000 0.000000 -0.000000 -3.757160 91.954400 -0.581822 87.345300 0.752799 2.090080 15.735700 0.000005 -0.000001 71.092300 86.011300 -66.674600 8.984550 -0.406207 -0.000000 -0.091787 -2.886820 8.829460 16.377300 -0.000001 -0.000001 2.098790 -0.808222 -0.414864 6.456720 -0.000001 -0.000000 -2.066670 -1.154710 18.248200 12.994200 -0.242716 4.980390 -84.230400 -10.460100 -60.902400 5.348090 -0.000007 -0.000001 -32.166800 -50.225900 -55.586100 24.328600 0.000019 0.000005 1.881180 7.954180 -13.352900 22.291600 -0.000001 0.000005 21.715800 5.495490 -6.351790 12.994500 -0.242716 -4.980390 89.339900 1.529640 -66.653300 -5.348130 -0.000001 -0.000004 -51.288300 70.633500 6.070070 -24.328900 0.000322 -0.000009 24.001400 1.056440 -87.629600 -22.291500 -0.000108 -0.000004 31.533800 5.678510 -23.139200 -2.192480 -6.469440 -0.000000 -166.238000 -15.176400 -2.453690 39.081100 -0.000007 -0.000012 -0.155724 0.463557 18.569100 40.985400 -0.000006 -0.000013 -8.841010 2.888850 -61.536500 11.754300 -0.000000 0.000003 -0.000086 -0.000908 -16.612500 -2.192510 6.469440 -0.000001 176.425000 21.210100 178.744000 -39.081100 -0.002282 -0.040193 -0.100441 0.290613 19.649100 -40.985400 0.000008 0.000006 -3.676470 2.391680 -64.637700 -11.754300 -0.000006 -0.000006 -0.004266 -0.054182 -18.777200
0.000000 0.000000 0.000000 0.000000 0.000000 -0.000000 -3.844720 91.937300 -0.548217 87.333900 0.979465 2.141560 15.735700 0.000005 -0.000001 71.478400 86.006100 -67.058400 8.984550 -0.406207 -0.000000 -0.066393 -2.838420 8.834730 16.377300 -0.000001 -0.000001 2.137920 -0.910976 -0.209372 6.456720 -0.000001 -0.000000 -1.957090 -1.407430 18.484300 12.994200 -0.242716 4.980390 -84.212900 -10.471900 -60.854900 5.348090 -0.000007 -0.000001 -32.729400 -49.332300 -55.185000 24.328600 0.000019 0.000005 1.997470 9.912020 -11.454100 22.291600 -0.000001 0.000005 21.040100 5.479140 -5.715480 12.994500 -0.242716 -4.980390 89.300500 1.625620 -66.714000 -5.348130 -0.000001 -0.000004 -51.041000 70.665000 6.002520 -24.328900 0.000322 -0.000009 23.701700 1.020890 -87.676700 -22.291500 -0.000108 -0.000004 31.556700 5.678200 -23.227600 -2.192480 -6.469440 -0.000000 -166.158000 -14.968300 -2.453160 39.081100 -0.000007 -0.000012 -0.158004 0.470048 18.580000 40.985400 -0.000006 -0.000013 -8.906000 2.931660 -61.527000 11.754300 -0.000000 0.000003 -0.000093 -0.000963 -16.614600 -2.192510 6.469440 -0.000001 176.466000 21.329900 178.801000 -39.081100 -0.002282 -0.040193 -0.102132 0.293520 19.762200 -40.985400 0.000008 0.000006 -3.648630 2.271380 -64.767700 -11.754300 -0.000006 -0.000006 -0.004198 -0.053486 -18.748900
0.000000 0.000000 0.000000 0.000000 0.000000 -0.000000 -3.942470 91.915900 -0.502349 87.303900 1.244750 2.233540 15.735700 0.000005 -0.000001 71.622600 86.006900 -67.197900 8.984550 -0.406207 -0.000000 -0.062136 -2.819010 8.844150 16.377300 -0.000001 -0.000001 2.261880 -1.115130 0.069876 6.456720 -0.000001 -0.000000 -1.824980 -1.625210 18.571700 12.994200 -0.242716 4.980390 -84.239200 -10.454800 -60.927500 5.348090 -0.000007 -0.000001 -33.180200 -48.796300 -55.415100 24.328600 0.000019 0.000005 1.990020 11.077000 -10.250900 22.291600 -0.000001 0.000005 20.881700 5.474450 -5.537570 12.994500 -0.242716 -4.980390 89.268500 1.696350 -66.668500 -5.348130 -0.000001 -0.000004 -50.390100 70.764200 5.504170 -24.328900 0.000322 -0.000009 23.620600 0.991504 -87.734800 -22.291500 -0.000108 -0.000004 31.618700 5.678460 -23.156400 -2.192480 -6.469440 -0.000000 -166.044000 -14.827500 -2.462910 39.081100 -0.000007 -0.000012 -0.159724 0.472956 18.660700 40.985400 -0.000006 -0.000013 -8.947460 3.091500 -61.526100 11.754300 -0.000000 0.000003 -0.000101 -0.001037 -16.617300 -2.192510 6.469440 -0.000001 176.516000 21.452700 178.914000 -39.081100 -0.002282 -0.040193 -0.102942 0.293912 19.877600 -40.985400 0.000008 0.000006 -3.617840 2.146360 -64.917300 -11.754300 -0.000006 -0.000006 -0.004264 -0.054161 -18.776400
0.000000 0.000000 0.000000 0.000000 0.000000 -0.000000 -4.033830 91.903300 -0.439218 87.293300 1.597110 2.332810 15.735700 0.000005 -0.000001 71.153500 86.003100 -66.729300 8.984550 -0.406207 -0.000000 -0.073357 -2.883810 8.842920 16.377300 -0.000001 -0.000001 2.328220 -1.190910 0.231018 6.456720 -0.000001 -0.000000 -1.677400 -1.715050 18.583600 12.994200 -0.242716 4.980390 -84.293400 -10.379300 -60.984600 5.348090 -0.000007 -0.000001 -34.091800 -48.780900 -56.703600 24.328600 0.000019 0.000005 1.836730 10.569100 -9.916750 22.291600 -0.000001 0.000005 20.956600 5.472530 -5.465530 12.994500 -0.242716 -4.980390 89.237600 1.762150 -66.600000 -5.348130 -0.000001 -0.000004 -49.720300 70.799900 4.993080 -24.328900 0.000322 -0.000009 23.446300 0.931117 -87.854900 -22.291500 -0.000108 -0.000004 31.341300 5.678550 -23.129600 -2.192480 -6.469440 -0.000000 -165.943000 -14.640400 -2.397310 39.081100 -0.000007 -0.000012 -0.160852 0.477599 18.613400 40.985400 -0.000006 -0.000013 -9.004170 3.232910 -61.476400 11.754300 -0.000000 0.000003 -0.000102 -0.001050 -16.617800 -2.192510 6.469440 -0.000001 176.526000 21.643700 179.107000 -39.081100 -0.002282 -0.040193 -0.103782 0.295770 19.906300 -40.985400 0.000008 0.000006 -3.606700 1.996370 -65.042400 -11.754300 -0.000006 -0.000006 -0.004318 -0.054711 -18.798800
